<?xml version="1.0" encoding="UTF-8" standalone="no"?>
<svg width="16px" height="18px" viewBox="0 0 16 18" version="1.1" xmlns="http://www.w3.org/2000/svg" xmlns:xlink="http://www.w3.org/1999/xlink">
    <!-- Generator: Sketch 43.2 (39069) - http://www.bohemiancoding.com/sketch -->
    <title>cart</title>
    <desc>Created with Sketch.</desc>
    <defs></defs>
    <g id="Symbols" stroke="none" stroke-width="1" fill="none" fill-rule="evenodd" stroke-linecap="round">
        <g id="Menu/Not-logged-in" transform="translate(-1099.000000, -41.000000)" stroke="#000000" stroke-width="0.888888889">
            <g id="cart" transform="translate(1100.000000, 42.000000)">
                <path d="M12.678421,16 L1.32157935,16 C0.619831528,16 0.0768805722,15.3828125 0.163921761,14.6840567 L1.42781046,4.53771528 C1.50078981,3.95184773 1.99709102,3.51219512 2.58546824,3.51219512 L11.4145325,3.51219512 C12.0029097,3.51219512 12.4992109,3.95184773 12.5721899,4.53771528 L13.8360788,14.6840567 C13.9231194,15.3828125 13.3801683,16 12.678421,16 Z" id="Shape"></path>
                <path d="M3.88888889,3.12195122 C3.88888889,1.39774509 5.28178089,0 7,0 C8.71821911,0 10.1111111,1.39774509 10.1111111,3.12195122" id="Shape"></path>
                <path d="M5.44444444,3.12195122 C5.44444444,2.25984823 6.14089043,1.56097561 7,1.56097561 C7.85910957,1.56097561 8.55555556,2.25984823 8.55555556,3.12195122" id="Shape"></path>
            </g>
        </g>
    </g>
</svg>