<?xml version="1.0" encoding="UTF-8" standalone="no"?>
<svg width="18px" height="16px" viewBox="0 0 18 16" version="1.1" xmlns="http://www.w3.org/2000/svg" xmlns:xlink="http://www.w3.org/1999/xlink">
    <!-- Generator: Sketch 43.2 (39069) - http://www.bohemiancoding.com/sketch -->
    <title>Shape</title>
    <desc>Created with Sketch.</desc>
    <defs></defs>
    <g id="Symbols" stroke="none" stroke-width="1" fill="none" fill-rule="evenodd">
        <g id="Menu/Not-logged-in" transform="translate(-1130.000000, -42.000000)" fill-rule="nonzero" fill="#000000">
            <g id="icon-heart-alt" transform="translate(1130.000000, 42.000000)">
                <path d="M17.991,5.61942857 C17.94375,2.81485714 15.703875,0.315428571 12.9375,0.315428571 C11.33775,0.315428571 9.928125,1.16571429 9,2.41371429 C8.071875,1.16571429 6.66225,0.315428571 5.0625,0.315428571 C2.296125,0.315428571 0.05625,2.81485714 0.009,5.61942857 L0,5.61942857 C0,5.63657143 0.003375,5.65257143 0.003375,5.66971429 C0.003375,5.68228571 0,5.69485714 0,5.70857143 C0,5.78742857 0.019125,5.84685714 0.0225,5.92228571 C0.27,13.0697143 8.929125,16 8.929125,16 C8.929125,16 17.715375,13.0731429 17.97525,5.93371429 C17.97975,5.85371429 18,5.79085714 18,5.70857143 C18,5.69485714 17.996625,5.68228571 17.996625,5.66971429 C17.996625,5.65142857 18,5.63657143 18,5.61942857 L17.991,5.61942857 Z M16.851375,5.89142857 C16.65225,11.3771429 10.486125,14.1657143 8.931375,14.7817143 C7.390125,14.1645714 1.3365,11.3885714 1.146375,5.86971429 C1.144125,5.81257143 1.1385,5.76 1.130625,5.70285714 C1.13175,5.68228571 1.132875,5.66057143 1.134,5.63885714 C1.17225,3.37257143 2.971125,1.45828571 5.0625,1.45828571 C6.21675,1.45828571 7.324875,2.05714286 8.10225,3.10285714 C8.314875,3.38857143 8.64675,3.55657143 9,3.55657143 C9.35325,3.55657143 9.685125,3.38857143 9.89775,3.10285714 C10.675125,2.05714286 11.78325,1.45828571 12.9375,1.45828571 C15.028875,1.45828571 16.82775,3.37257143 16.866,5.63885714 C16.866,5.66057143 16.867125,5.68228571 16.869375,5.704 C16.8615,5.76 16.85475,5.81942857 16.851375,5.89142857 Z" id="Shape"></path>
            </g>
        </g>
    </g>
</svg>