<?xml version="1.0" encoding="UTF-8" standalone="no"?>
<svg width="15px" height="15px" viewBox="0 0 15 15" version="1.1" xmlns="http://www.w3.org/2000/svg" xmlns:xlink="http://www.w3.org/1999/xlink">
    <!-- Generator: Sketch 46.2 (44496) - http://www.bohemiancoding.com/sketch -->
    <title>Shape</title>
    <desc>Created with Sketch.</desc>
    <defs></defs>
    <g id="Symbols" stroke="none" stroke-width="1" fill="none" fill-rule="evenodd">
        <g id="chuvak-referal" transform="translate(-760.000000, -12.000000)" fill-rule="nonzero" fill="#000000">
            <g id="Group-14">
                <g id="Edit-User-Male" transform="translate(760.000000, 12.000000)">
                    <path d="M5.77001433,0 C3.54616506,0 1.7310043,1.79549188 1.7310043,3.99524376 C1.7310043,5.37008875 2.44138515,6.59336219 3.51610248,7.31272295 C1.45785944,8.18587377 0,10.2057143 0,12.5564804 L1.15400287,12.5564804 C1.15400287,10.0276817 3.21351364,7.99048751 5.77001433,7.99048751 C7.00828767,7.99048751 8.11433999,8.4919083 8.94352221,9.27467301 L6.34701576,11.843044 L6.2207967,11.9678954 L6.18473411,12.1462545 L5.78804562,14.1617122 L5.60773267,15 L6.45520353,14.8216409 L8.49273984,14.4292509 L8.67305278,14.3935791 L8.79927185,14.2687277 L14.497161,8.63258026 C15.167613,7.9693932 15.167613,6.87008361 14.497161,6.20689655 C14.1619353,5.87530331 13.714784,5.70749108 13.2710329,5.70749108 C12.8351591,5.70749108 12.3959624,5.86913522 12.0629362,6.18906064 L12.0449049,6.20689655 L9.77296176,8.45422117 C9.27107957,7.97600304 8.67429564,7.58797698 8.02392617,7.31272295 C9.09864327,6.59336219 9.80902435,5.37008875 9.80902435,3.99524376 C9.80902435,1.79549182 7.99386324,0 5.77001433,0 Z M5.77001433,1.14149822 C7.37019394,1.14149822 8.65502149,2.41240335 8.65502149,3.99524376 C8.65502149,5.578084 7.37019394,6.8489893 5.77001433,6.8489893 C4.16983472,6.8489893 2.88500716,5.578084 2.88500716,3.99524376 C2.88500716,2.41240329 4.16983472,1.14149822 5.77001433,1.14149822 Z M13.2710329,6.8489893 C13.4169774,6.8489893 13.5709173,6.895922 13.6857527,7.00951249 C13.915423,7.23669403 13.915423,7.58494687 13.6857527,7.81212842 L8.09605135,13.3412604 L7.06826755,13.5552913 L7.28464309,12.5386445 L12.8743445,7.00951249 C12.9891799,6.89592143 13.1250885,6.8489893 13.2710329,6.8489893 Z" id="Shape"></path>
                </g>
            </g>
        </g>
    </g>
</svg>