<?xml version="1.0" encoding="UTF-8" standalone="no"?>
<svg width="14px" height="16px" viewBox="0 0 14 16" version="1.1" xmlns="http://www.w3.org/2000/svg" xmlns:xlink="http://www.w3.org/1999/xlink">
    <!-- Generator: Sketch 46.2 (44496) - http://www.bohemiancoding.com/sketch -->
    <title>Shape</title>
    <desc>Created with Sketch.</desc>
    <defs></defs>
    <g id="Order-details" stroke="none" stroke-width="1" fill="none" fill-rule="evenodd">
        <g id="Order--Details-1024" transform="translate(-946.000000, -267.000000)" fill-rule="nonzero" fill="#000000">
            <g id="Group-12" transform="translate(282.000000, 209.000000)">
                <path d="M669.090909,64.3333332 L669.090909,70.3333333 C669.090909,70.4305555 669.061079,70.5104171 669.00142,70.5729169 C668.941761,70.6354166 668.86553,70.6666671 668.772727,70.6666671 L668.136364,70.6666671 C668.043561,70.6666671 667.96733,70.6354166 667.90767,70.5729169 C667.848012,70.5104171 667.818181,70.4305555 667.818181,70.3333333 L667.818181,64.3333332 C667.818181,64.236111 667.848012,64.15625 667.90767,64.0937497 C667.96733,64.0312499 668.043561,64.0000001 668.136364,64.0000001 L668.772727,64.0000001 C668.86553,64.0000001 668.941761,64.0312499 669.00142,64.0937497 C669.061079,64.15625 669.090909,64.236111 669.090909,64.3333332 Z M671.636364,64.3333332 L671.636364,70.3333333 C671.636364,70.4305555 671.606534,70.5104171 671.546875,70.5729169 C671.487216,70.6354166 671.410985,70.6666671 671.318182,70.6666671 L670.681818,70.6666671 C670.589015,70.6666671 670.512784,70.6354166 670.453125,70.5729169 C670.393466,70.5104171 670.363636,70.4305555 670.363636,70.3333333 L670.363636,64.3333332 C670.363636,64.236111 670.393466,64.15625 670.453125,64.0937497 C670.512784,64.0312499 670.589015,64.0000001 670.681818,64.0000001 L671.318182,64.0000001 C671.410985,64.0000001 671.487216,64.0312499 671.546875,64.0937497 C671.606534,64.15625 671.636364,64.236111 671.636364,64.3333332 Z M674.181818,64.3333332 L674.181818,70.3333333 C674.181818,70.4305555 674.151988,70.5104171 674.09233,70.5729169 C674.03267,70.6354166 673.956439,70.6666671 673.863636,70.6666671 L673.227272,70.6666671 C673.134469,70.6666671 673.058238,70.6354166 672.99858,70.5729169 C672.93892,70.5104171 672.909091,70.4305555 672.909091,70.3333333 L672.909091,64.3333332 C672.909091,64.236111 672.93892,64.15625 672.99858,64.0937497 C673.058238,64.0312499 673.134469,64.0000001 673.227272,64.0000001 L673.863636,64.0000001 C673.956439,64.0000001 674.03267,64.0312499 674.09233,64.0937497 C674.151988,64.15625 674.181818,64.236111 674.181818,64.3333332 Z M675.454545,71.8750003 L675.454545,61.9999998 L666.545454,61.9999998 L666.545454,71.8750003 C666.545454,72.0277783 666.568655,72.168403 666.615057,72.2968751 C666.661458,72.4253472 666.709517,72.5190974 666.759233,72.5781251 C666.808949,72.6371529 666.84375,72.6666667 666.863637,72.6666667 L675.136363,72.6666667 C675.15625,72.6666667 675.191051,72.6371529 675.240767,72.5781251 C675.290483,72.5190974 675.338542,72.4253472 675.384943,72.2968751 C675.431345,72.168403 675.454545,72.0277783 675.454545,71.8750003 Z M668.772727,60.6666666 L673.227272,60.6666666 L672.75,59.4479168 C672.703598,59.3854164 672.647254,59.3472219 672.580966,59.3333333 L669.428977,59.3333333 C669.362689,59.3472219 669.306345,59.3854164 669.259943,59.4479168 L668.772727,60.6666666 Z M678,60.9999997 L678,61.6666667 C678,61.7638889 677.97017,61.8437499 677.910511,61.9062502 C677.850852,61.96875 677.774621,61.9999998 677.681818,61.9999998 L676.727272,61.9999998 L676.727272,71.8750003 C676.727272,72.451389 676.571496,72.9496528 676.259943,73.3697922 C675.94839,73.7899309 675.573863,74 675.136363,74 L666.863637,74 C666.426136,74 666.05161,73.7968755 665.740057,73.3906254 C665.428504,72.9843753 665.272727,72.4930555 665.272727,71.9166668 L665.272727,61.9999998 L664.318182,61.9999998 C664.225379,61.9999998 664.149148,61.96875 664.089489,61.9062502 C664.029829,61.8437499 664,61.7638889 664,61.6666667 L664,60.9999997 C664,60.9027775 664.029829,60.8229165 664.089489,60.7604168 C664.149148,60.6979164 664.225379,60.6666666 664.318182,60.6666666 L667.390625,60.6666666 L668.086647,58.9270831 C668.186079,58.670139 668.365057,58.4513886 668.623579,58.2708334 C668.882102,58.0902776 669.143939,58 669.409091,58 L672.590909,58 C672.85606,58 673.117897,58.0902776 673.37642,58.2708334 C673.634943,58.4513886 673.813921,58.670139 673.913352,58.9270831 L674.609375,60.6666666 L677.681818,60.6666666 C677.774621,60.6666666 677.850852,60.6979164 677.910511,60.7604168 C677.97017,60.8229165 678,60.9027775 678,60.9999997 Z" id="Shape"></path>
            </g>
        </g>
    </g>
</svg>