<?xml version="1.0" encoding="UTF-8" standalone="no"?>
<svg width="12px" height="12px" viewBox="0 0 12 12" version="1.1" xmlns="http://www.w3.org/2000/svg" xmlns:xlink="http://www.w3.org/1999/xlink">
    <!-- Generator: Sketch 46.2 (44496) - http://www.bohemiancoding.com/sketch -->
    <title>Shape</title>
    <desc>Created with Sketch.</desc>
    <defs></defs>
    <g id="Referal" stroke="none" stroke-width="1" fill="none" fill-rule="evenodd">
        <g id="Referal-1920-Edit" transform="translate(-1370.000000, -1296.000000)" fill-rule="nonzero" fill="#000000">
            <g id="Group-14" transform="translate(670.000000, 1293.000000)">
                <g id="Save" transform="translate(700.000000, 3.000000)">
                    <path d="M0,0 L0,0.545454545 L0,11.4545455 L0,12 L0.545454545,12 L11.4545455,12 L12,12 L12,11.4545455 L12,2.72727273 L12,2.50568182 L11.8465909,2.33522727 L9.66477273,0.153409091 L9.49431818,0 L9.27272727,0 L0.545454545,0 L0,0 Z M1.09090909,1.09090909 L2.72727273,1.09090909 L2.72727273,3.81818182 L2.72727273,4.36363636 L3.27272727,4.36363636 L8.72727273,4.36363636 L9.27272727,4.36363636 L9.27272727,3.81818182 L9.27272727,1.32954545 L10.9090909,2.96590909 L10.9090909,10.9090909 L9.81818182,10.9090909 L9.81818182,6.54545455 L9.81818182,6 L9.27272727,6 L2.72727273,6 L2.18181818,6 L2.18181818,6.54545455 L2.18181818,10.9090909 L1.09090909,10.9090909 L1.09090909,1.09090909 Z M3.81818182,1.09090909 L6,1.09090909 L6,2.18181818 L7.09090909,2.18181818 L7.09090909,1.09090909 L8.18181818,1.09090909 L8.18181818,3.27272727 L3.81818182,3.27272727 L3.81818182,1.09090909 Z M3.27272727,7.09090909 L8.72727273,7.09090909 L8.72727273,10.9090909 L3.27272727,10.9090909 L3.27272727,7.09090909 Z" id="Shape"></path>
                </g>
            </g>
        </g>
    </g>
</svg>