<?xml version="1.0" encoding="UTF-8" standalone="no"?>
<svg width="16px" height="16px" viewBox="0 0 16 16" version="1.1" xmlns="http://www.w3.org/2000/svg" xmlns:xlink="http://www.w3.org/1999/xlink">
    <!-- Generator: Sketch 43.2 (39069) - http://www.bohemiancoding.com/sketch -->
    <title>Shape</title>
    <desc>Created with Sketch.</desc>
    <defs></defs>
    <g id="Symbols" stroke="none" stroke-width="1" fill="none" fill-rule="evenodd">
        <g id="Menu/Not-logged-in" transform="translate(-861.000000, -42.000000)" fill-rule="nonzero" fill="#000000">
            <g id="Group-2" transform="translate(303.000000, 38.000000)">
                <g id="searh" transform="translate(566.000000, 12.000000) scale(-1, 1) translate(-566.000000, -12.000000) translate(558.000000, 4.000000)">
                    <path d="M9.6969697,0 C6.21575758,0 3.39393939,2.82181818 3.39393939,6.3030303 C3.39393939,7.80121212 3.91951515,9.17624242 4.79224242,10.2584242 L0.626424242,14.4242424 C0.364606061,14.6860606 0.364606061,15.1117576 0.626424242,15.3735758 C0.888242424,15.6353939 1.31393939,15.6353939 1.57575758,15.3735758 L5.74157576,11.2077576 C6.82375758,12.0804848 8.19878788,12.6060606 9.6969697,12.6060606 C13.1781818,12.6060606 16,9.78424242 16,6.3030303 C16,2.82181818 13.1781818,0 9.6969697,0 Z M9.6969697,11.6363636 C6.75587879,11.6363636 4.36363636,9.24412121 4.36363636,6.3030303 C4.36363636,3.36193939 6.75587879,0.96969697 9.6969697,0.96969697 C12.6380606,0.96969697 15.030303,3.36193939 15.030303,6.3030303 C15.030303,9.24412121 12.6380606,11.6363636 9.6969697,11.6363636 Z" id="Shape"></path>
                </g>
            </g>
        </g>
    </g>
</svg>