<?xml version="1.0" encoding="UTF-8" standalone="no"?>
<svg width="17px" height="17px" viewBox="0 0 17 17" version="1.1" xmlns="http://www.w3.org/2000/svg" xmlns:xlink="http://www.w3.org/1999/xlink">
    <!-- Generator: Sketch 43.2 (39069) - http://www.bohemiancoding.com/sketch -->
    <title>Group</title>
    <desc>Created with Sketch.</desc>
    <defs></defs>
    <g id="Symbols" stroke="none" stroke-width="1" fill="none" fill-rule="evenodd">
        <g id="User/Logged-in" transform="translate(1.000000, 1.000000)">
            <g id="user">
                <g id="Layer_1">
                    <g id="Group">
                        <path d="M7.82117647,8.76235294 C9.09176471,8.76235294 9.92941176,7.04941176 10.0517647,6.61647059 C10.0517647,6.61647059 10.2494118,6.48470588 10.2682353,6.45647059 C10.9552941,5.21411765 10.2023529,5.12 10.2023529,5.12 C10.218611,4.69601434 10.1774536,4.27177746 10.08,3.85882353 C10.08,3.85882353 9.97647059,2.29647059 7.82117647,2.29647059 C5.66588235,2.29647059 5.56235294,3.81176471 5.56235294,3.81176471 C5.45742603,4.23952816 5.41307162,4.6799041 5.43058824,5.12 C5.43058824,5.12 4.67764706,5.26117647 5.36470588,6.49411765 C5.36470588,6.49411765 5.57176471,6.61647059 5.58117647,6.65411765 C5.71294118,7.00235294 6.55058824,8.76235294 7.82117647,8.76235294 Z" id="Shape" fill="#201600" fill-rule="nonzero"></path>
                        <path d="M2.72941176,13.3741176 C4.16048643,14.6330088 5.97431149,15.3724658 7.87764706,15.4729412 C9.7322068,15.5291646 11.5343344,14.8529441 12.8941176,13.5905882 C12.8470588,12.5552941 11.1717647,9.93882353 7.81176471,9.93882353 C4.17882353,9.96705882 2.72941176,12.4423529 2.72941176,13.3741176 Z" id="Shape" fill="#201600" fill-rule="nonzero"></path>
                        <circle id="Oval" stroke="#000000" stroke-width="0.89" stroke-linecap="round" stroke-linejoin="round" cx="7.94352941" cy="7.94352941" r="7.52941176"></circle>
                    </g>
                </g>
            </g>
        </g>
    </g>
</svg>