<?xml version="1.0" encoding="UTF-8" standalone="no"?>
<svg width="18px" height="18px" viewBox="0 0 18 18" version="1.1" xmlns="http://www.w3.org/2000/svg" xmlns:xlink="http://www.w3.org/1999/xlink">
    <!-- Generator: Sketch 43.2 (39069) - http://www.bohemiancoding.com/sketch -->
    <title>login</title>
    <desc>Created with Sketch.</desc>
    <defs></defs>
    <g id="Symbols" stroke="none" stroke-width="1" fill="none" fill-rule="evenodd" stroke-linecap="round" stroke-linejoin="round">
        <g id="User/Not-Logged-In" transform="translate(1.000000, 1.000000)" stroke-width="0.888888889" stroke="#000000">
            <g id="login">
                <path d="M7.86666716,9.86985396 C9.21319424,9.86985396 10.1080017,8.04678952 10.2385902,7.58501584 C10.2481407,7.55146252 10.4496071,7.44731596 10.4664642,7.41697768 C11.1953522,6.10413968 10.398626,5.9549278 10.398626,5.9549278 C10.398626,5.9549278 10.4359574,5.26313856 10.2668549,4.6131996 C10.2668549,4.6131996 10.1566223,3.00012128 7.8666672,3.00012128 C5.58785784,3.00012128 5.46647952,4.6131996 5.46647952,4.6131996 C5.29737704,5.26313856 5.33470844,5.9549278 5.33470844,5.9549278 C5.33470844,5.9549278 4.5379822,6.10413968 5.26687016,7.41697768 C5.28372732,7.44731596 5.48519368,7.55146256 5.49474416,7.58501584 C5.62533264,8.04678956 6.52014008,9.86985396 7.86666716,9.86985396 Z" id="Shape"></path>
                <path d="M2.4625,13.675 C2.4625,11.69375 3.75584604,10.7539818 5.14016344,10.3093407 C6.11718296,9.99545364 6.63047184,9.47793732 6.63047184,9.47793732" id="Shape"></path>
                <path d="M9.10286256,9.47793732 C9.10286256,9.47793732 9.61615144,9.99545364 10.593171,10.3093407 C11.9774887,10.7539818 13.1634018,11.5910309 13.2666672,13.8001221" id="Shape"></path>
                <circle id="Oval" cx="8" cy="8" r="8"></circle>
            </g>
        </g>
    </g>
</svg>