<?xml version="1.0" encoding="UTF-8" standalone="no"?>
<svg width="64px" height="20px" viewBox="0 0 64 20" version="1.1" xmlns="http://www.w3.org/2000/svg"
     xmlns:xlink="http://www.w3.org/1999/xlink">
  <title>wic</title>
  <g id="Symbols" stroke="none" stroke-width="1" fill="none" fill-rule="evenodd">
    <g id="logo_layer" transform="translate(0.000000, -40.000000)" fill-rule="nonzero" fill="#000000">
      <g id="wic" transform="translate(0.000000, 40.000000)">
        <g id="Layer_1">
          <path
            d="M60.6490566,13.1409091 C59.2501754,15.9226082 56.167253,17.4176519 53.1268777,16.7887421 C50.0865024,16.1598323 47.8435936,13.5631261 47.6542907,10.4529068 C47.4649879,7.34268758 49.3762944,4.49121676 52.3177846,3.49545845 C55.2592747,2.49970014 58.5005822,3.60689922 60.2264151,6.1969697 L63.5864151,6.1969697 C61.7426295,1.7973945 57.0280813,-0.648940499 52.3860326,0.385195944 C47.743984,1.41933239 44.5030434,5.63795834 44.6865093,10.4074127 C44.8699753,15.1768671 48.4253376,19.1320763 53.1330064,19.8038287 C57.8406752,20.4755811 62.3532608,17.6716132 63.8535849,13.1424242 L60.6490566,13.1424242 L60.6490566,13.1409091 Z"
            id="Shape"></path>
          <rect id="Rectangle-path" x="33.4430189" y="0.389393939" width="3.06113208" height="19.2757576"></rect>
          <polygon id="Shape"
                   points="3.06113208 0.389393939 0 0.389393939 6.97811321 19.6651515 10.0392453 19.6651515"></polygon>
          <polygon id="Shape"
                   points="11.5139623 0.389393939 8.45283019 0.389393939 15.4309434 19.6651515 18.4920755 19.6651515"></polygon>
          <polygon id="Shape"
                   points="22.525283 0.389393939 25.5864151 0.389393939 18.6083019 19.6651515 15.5471698 19.6651515"></polygon>
          <polygon id="Shape"
                   points="11.2618868 8.24393939 14.3230189 8.24393939 10.0543396 19.6651515 6.99320755 19.6651515"></polygon>
        </g>
      </g>
    </g>
  </g>
</svg>
