<?xml version="1.0" encoding="UTF-8" standalone="no"?>
<svg width="57px" height="50px" viewBox="0 0 57 50" version="1.1" xmlns="http://www.w3.org/2000/svg" xmlns:xlink="http://www.w3.org/1999/xlink">
    <!-- Generator: Sketch 46.2 (44496) - http://www.bohemiancoding.com/sketch -->
    <title>Group 3 Copy 3</title>
    <desc>Created with Sketch.</desc>
    <defs></defs>
    <g id="UI-KIT" stroke="none" stroke-width="1" fill="none" fill-rule="evenodd">
        <g transform="translate(-470.000000, -6272.000000)" id="Group-3-Copy-3">
            <g transform="translate(470.000000, 6272.000000)">
                <polygon id="Rectangle-4-Copy" fill="#ED4B84" points="0.36230133 0.961089494 56.6512407 0.961089494 56.6512407 35.9805447 14.4345362 35.9805447 0.36230133 49.9883268 0.36230133 35.9805447"></polygon>
                <g id="Group-2" transform="translate(8.000000, 13.000000)" fill-rule="nonzero" fill="#FFFFFF">
                    <path d="M38.0728675,7.91517523 C37.2129527,9.5758985 35.3178308,10.4684659 33.4488633,10.0929957 C31.5798958,9.71752546 30.2011438,8.16724621 30.0847762,6.31039063 C29.9684087,4.45353505 31.1433195,2.75115683 32.9515008,2.15667161 C34.759682,1.5621864 36.7521657,2.22320372 37.8130629,3.76952133 L39.8785089,3.76952133 C38.7451043,1.14289758 35.8469958,-0.317607419 32.9934539,0.299790219 C30.1399121,0.917187856 28.1476539,3.43578172 28.2604334,6.28322983 C28.3732128,9.13067793 30.5587511,11.4920074 33.4526307,11.8930554 C36.3465103,12.2941033 39.1204691,10.6200852 40.0427425,7.9160798 L38.0728675,7.9160798 L38.0728675,7.91517523 Z" id="Shape"></path>
                    <rect id="Rectangle-path" x="21.3488792" y="0.302296496" width="1.88172704" height="11.5079662"></rect>
                    <polygon id="Shape" points="2.67264561 0.302296496 0.790918569 0.302296496 5.0804768 11.8102627 6.96220384 11.8102627"></polygon>
                    <polygon id="Shape" points="7.86873604 0.302296496 5.98700901 0.302296496 10.2765672 11.8102627 12.1582943 11.8102627"></polygon>
                    <polygon id="Shape" points="14.6375717 0.302296496 16.5192987 0.302296496 12.2297405 11.8102627 10.3480135 11.8102627"></polygon>
                    <polygon id="Shape" points="7.7137812 4.99159822 9.59550824 4.99159822 6.97148257 11.8102627 5.08975553 11.8102627"></polygon>
                </g>
            </g>
        </g>
    </g>
</svg>